<?xml version="1.0" encoding="UTF-8"?>
<svg width="80px" height="52px" viewBox="0 0 80 52" version="1.1" xmlns="http://www.w3.org/2000/svg" xmlns:xlink="http://www.w3.org/1999/xlink">
    <!-- Generator: Sketch 45.2 (43514) - http://www.bohemiancoding.com/sketch -->
    <title>Icon-mb/synced-accounts</title>
    <desc>Created with Sketch.</desc>
    <defs></defs>
    <g id="Symbols" stroke="none" stroke-width="1" fill="none" fill-rule="evenodd">
        <g id="Icon-mb/synced-accounts" fill="#0066CC">
            <path d="M47,37 L40.825,37 C40.297,37 39.79,37.21 39.417,37.583 L36,41 L28,41 L24.579,37.579 C24.208,37.208 23.705,37 23.181,37 L17,37 L17,19 L32,19 L32,27 L32,33 C32,34.104 32.896,35 34,35 L47,35 L47,37 Z M47,29 L45,29 L41.579,25.579 C41.208,25.208 40.705,25 40.181,25 L34,25 L34,19 L47,19 L47,29 Z M64,5 L34,5 C32.896,5 32,5.896 32,7 L32,17 L17,17 C15.896,17 15,17.896 15,19 L15,39 L15,45 C15,46.104 15.896,47 17,47 L47,47 C48.104,47 49,46.104 49,45 L49,39 L49,35 L64,35 C64.414,35 64.799,34.874 65.118,34.658 C65.331,34.515 65.515,34.331 65.658,34.118 C65.874,33.799 66,33.414 66,33 L66,27 L66,7 C66,5.896 65.104,5 64,5 L64,5 Z M64,25 L57.825,25 C57.297,25 56.79,25.21 56.417,25.583 L53,29 L49,29 L49,19 C49,17.896 48.104,17 47,17 L34,17 L34,7 L64,7 L64,25 Z" id="Page-1"></path>
            <path d="M34,7 L34,19 L49,19 L49,29 L44,29 L44,28 L43,28 L43,27 L42,27 L42,26 L34,26 L34,33 L32,33 L32,19 L17,19 L17,37 L17,45 L47,45 L47,37 L47,34 L64,34 L64,33 L64,31 L64,29 L64,28 L64,27 L64,26 L58,26 L58,27 L56,27 L56,28 L55,28 L55,29 L53,29 L56.417,25.583 C56.79,25.21 57.297,25 57.825,25 L64,25 L64,19 L64,7 L34,7 Z" id="Page-1" fill-opacity="0.15"></path>
        </g>
    </g>
</svg>