<?xml version="1.0" encoding="UTF-8"?>
<svg width="80px" height="52px" viewBox="0 0 80 52" version="1.1" xmlns="http://www.w3.org/2000/svg" xmlns:xlink="http://www.w3.org/1999/xlink">
    <!-- Generator: Sketch 45.2 (43514) - http://www.bohemiancoding.com/sketch -->
    <title>Icon-mb/customizable-layout</title>
    <desc>Created with Sketch.</desc>
    <defs></defs>
    <g id="Symbols" stroke="none" stroke-width="1" fill="none" fill-rule="evenodd">
        <g id="Icon-mb/customizable-layout" fill="#0066CC">
            <g id="Page-1" transform="translate(9.000000, 2.000000)">
                <path d="M17.457,12.8495 L35.127,3.1255 C35.276,3.0435 35.446,2.9995 35.617,2.9995 C35.788,2.9995 35.958,3.0435 36.108,3.1255 L56.257,14.2135 L38.097,24.2075 L17.457,12.8495 Z M8.351,17.8605 L28.99,29.2185 L23.997,31.9665 C23.761,32.0965 23.493,32.1645 23.224,32.1645 C22.954,32.1645 22.686,32.0965 22.45,31.9665 L2.584,21.0345 L8.351,17.8605 Z M60.302,22.2075 L58.926,21.4705 L53.43,18.4415 C53.279,18.3595 53.113,18.3185 52.947,18.3185 L58.059,15.5055 C59.076,14.9455 59.076,13.4825 58.059,12.9225 L37.072,1.3735 C36.619,1.1245 36.118,0.9995 35.617,0.9995 C35.116,0.9995 34.615,1.1245 34.162,1.3735 L13.309,12.8495 L20.745,16.9425 C20.579,16.9415 20.412,16.9835 20.262,17.0655 L15.658,19.5995 L8.351,15.5785 L0.846,19.7075 C-0.199,20.2825 -0.199,21.7855 0.846,22.3605 L5.872,25.1265 C5.706,25.1265 5.54,25.1675 5.39,25.2495 L3.325,26.3855 L0.557,27.9095 C0.213,28.0995 0,28.4605 0,28.8545 L0.041,29.5145 L23.84,42.6115 C24.423,42.9325 25.062,43.0925 25.702,43.0925 C26.342,43.0925 26.981,42.9325 27.565,42.6115 L60.316,24.5885 C60.751,24.3495 61.02,23.8915 61.017,23.3935 C61.014,22.8965 60.739,22.4425 60.302,22.2075 L60.302,22.2075 Z" id="Fill-1"></path>
                <path d="M26.9033,15.1303 L27.2743,15.3353 C27.8393,15.6453 28.5233,15.6453 29.0873,15.3353 L39.1363,9.8053 C39.7603,9.4623 39.7603,8.5653 39.1363,8.2223 C38.4893,7.8653 37.7033,7.8653 37.0553,8.2223 L26.9033,13.8093 C26.3823,14.0953 26.3823,14.8433 26.9033,15.1303" id="Fill-4"></path>
                <path d="M31.9404,17.8261 L32.3124,18.0311 C32.8774,18.3411 33.5604,18.3411 34.1254,18.0311 L44.1744,12.5001 C44.7974,12.1581 44.7974,11.2611 44.1744,10.9181 C43.5264,10.5611 42.7414,10.5611 42.0934,10.9181 L31.9404,16.5051 C31.4194,16.7911 31.4194,17.5391 31.9404,17.8261" id="Fill-6"></path>
            </g>
            <g id="Page-1" transform="translate(10.000000, 26.000000)" fill-opacity="0.15">
                <path d="M60.29,3.888 L58.892,3.139 L53.417,0.123 C53.119,-0.041 52.758,-0.041 52.462,0.123 L40.697,6.597 L27.817,13.685 L24.476,15.524 C23.686,15.957 22.746,15.957 21.956,15.524 L6.341,6.931 C6.045,6.766 5.683,6.768 5.387,6.931 L3.322,8.067 L3.321,8.067 L0.56,9.587 C0.215,9.778 0,10.141 0,10.534 L0,10.7 C0,11.056 0.195,11.385 0.508,11.555 L23.835,24.278 C24.417,24.598 25.057,24.759 25.694,24.759 C26.332,24.759 26.972,24.598 27.553,24.278 L60.302,6.257 C60.734,6.019 61.002,5.564 61,5.07 C60.998,4.575 60.726,4.123 60.29,3.888" id="Fill-1"></path>
            </g>
        </g>
    </g>
</svg>