<?xml version="1.0" encoding="UTF-8"?>
<svg width="80px" height="52px" viewBox="0 0 80 52" version="1.1" xmlns="http://www.w3.org/2000/svg" xmlns:xlink="http://www.w3.org/1999/xlink">
    <!-- Generator: Sketch 45.2 (43514) - http://www.bohemiancoding.com/sketch -->
    <title>Icon-mb/apps</title>
    <desc>Created with Sketch.</desc>
    <defs></defs>
    <g id="Symbols" stroke="none" stroke-width="1" fill="none" fill-rule="evenodd">
        <g id="Icon-mb/apps" fill="#0066CC">
            <g id="Page-1" transform="translate(5.000000, 4.000000)">
                <path d="M43,8 L17,8 C16.447,8 16,7.552 16,7 C16,6.448 16.447,6 17,6 L43,6 C43.553,6 44,6.448 44,7 C44,7.552 43.553,8 43,8" id="Fill-1"></path>
                <path d="M43,14 L17,14 C16.447,14 16,13.552 16,13 C16,12.448 16.447,12 17,12 L43,12 C43.553,12 44,12.448 44,13 C44,13.552 43.553,14 43,14" id="Fill-3"></path>
                <path d="M25,20 L16.845,20 C16.378,20 16,19.622 16,19.155 L16,18.845 C16,18.378 16.378,18 16.845,18 L25,18 C25.467,18 25.845,18.378 25.845,18.845 L25.845,19.155 C25.845,19.622 25.467,20 25,20" id="Fill-5"></path>
                <path d="M10,41 L2.042,41 C2.019,41 2,40.981 2,40.958 L2,2.042 C2,2.019 2.019,2 2.042,2 L10,2 L10,41 Z M47.958,0 L2.042,0 C0.914,0 0,0.914 0,2.042 L0,40.958 C0,42.086 0.914,43 2.042,43 L10,43 L12,43 L23,43 C23.553,43 24,42.553 24,42 C24,41.447 23.553,41 23,41 L12,41 L12,2 L47.958,2 C47.981,2 48,2.019 48,2.042 L48,13 C48,13.552 48.447,14 49,14 C49.553,14 50,13.552 50,13 L50,2.042 C50,0.914 49.086,0 47.958,0 L47.958,0 Z" id="Fill-7"></path>
                <path d="M8,8 C8,9.104 7.104,10 6,10 C4.896,10 4,9.104 4,8 C4,6.896 4.896,6 6,6 C7.104,6 8,6.896 8,8" id="Fill-9"></path>
                <path d="M8,14 C8,15.104 7.104,16 6,16 C4.896,16 4,15.104 4,14 C4,12.896 4.896,12 6,12 C7.104,12 8,12.896 8,14" id="Fill-11"></path>
                <path d="M8,20 C8,21.104 7.104,22 6,22 C4.896,22 4,21.104 4,20 C4,18.896 4.896,18 6,18 C7.104,18 8,18.896 8,20" id="Fill-13"></path>
                <path d="M68,34 L66,34 L66,24 C66,22.896 65.104,22 64,22 L54,22 L54,20 C54,18.896 53.104,18 52,18 L46,18 C44.896,18 44,18.896 44,20 L44,22 L34,22 C32.896,22 32,22.896 32,24 L32,34 L30,34 C28.896,34 28,34.896 28,36 L28,42 C28,43.104 28.896,44 30,44 L36,44 C37.104,44 38,43.104 38,42 L38,36 C38,34.896 37.104,34 36,34 L34,34 L34,24 L44,24 L44,26 C44,27.104 44.896,28 46,28 L48,28 L48,34 L46,34 C44.896,34 44,34.896 44,36 L44,42 C44,43.104 44.896,44 46,44 L52,44 C53.104,44 54,43.104 54,42 L54,36 C54,34.896 53.104,34 52,34 L50,34 L50,28 L52,28 C53.104,28 54,27.104 54,26 L54,24 L64,24 L64,34 L62,34 C60.896,34 60,34.896 60,36 L60,42 C60,43.104 60.896,44 62,44 L68,44 C69.104,44 70,43.104 70,42 L70,36 C70,34.896 69.104,34 68,34" id="Fill-15"></path>
            </g>
            <polygon id="Page-1" fill-opacity="0.15" points="7 45 15 45 15 6 7 6"></polygon>
        </g>
    </g>
</svg>